<mxfile host="app.diagrams.net" modified="2023-03-04T10:00:27.501Z" agent="5.0 (Macintosh; Intel Mac OS X 10_15_7) AppleWebKit/537.36 (KHTML, like Gecko) Chrome/109.0.0.0 Safari/537.36" etag="zXNpGG6tZeQdSpNJfZ4I" version="21.0.2" type="github">
  <diagram name="Page-1" id="0783ab3e-0a74-02c8-0abd-f7b4e66b4bec">
    <mxGraphModel dx="954" dy="562" grid="1" gridSize="10" guides="1" tooltips="1" connect="1" arrows="1" fold="1" page="1" pageScale="1" pageWidth="850" pageHeight="1100" background="none" math="0" shadow="0">
      <root>
        <mxCell id="0" />
        <mxCell id="1" parent="0" />
        <mxCell id="YV2BT5zyzoHaoUn2P1-p-2" value="平台应用" style="shape=umlLifeline;perimeter=lifelinePerimeter;whiteSpace=wrap;html=1;container=1;collapsible=0;recursiveResize=0;outlineConnect=0;rounded=1;shadow=0;comic=0;labelBackgroundColor=none;strokeWidth=1;fontFamily=Verdana;fontSize=12;align=center;" vertex="1" parent="1">
          <mxGeometry x="260" y="80" width="100" height="670" as="geometry" />
        </mxCell>
        <mxCell id="YV2BT5zyzoHaoUn2P1-p-3" style="edgeStyle=none;rounded=0;orthogonalLoop=1;jettySize=auto;html=1;dashed=1;elbow=vertical;" edge="1" parent="YV2BT5zyzoHaoUn2P1-p-2" target="YV2BT5zyzoHaoUn2P1-p-2">
          <mxGeometry relative="1" as="geometry">
            <mxPoint x="49.5" y="75" as="sourcePoint" />
          </mxGeometry>
        </mxCell>
        <mxCell id="YV2BT5zyzoHaoUn2P1-p-75" style="edgeStyle=orthogonalEdgeStyle;rounded=0;orthogonalLoop=1;jettySize=auto;html=1;" edge="1" parent="YV2BT5zyzoHaoUn2P1-p-2" source="YV2BT5zyzoHaoUn2P1-p-68" target="YV2BT5zyzoHaoUn2P1-p-2">
          <mxGeometry relative="1" as="geometry" />
        </mxCell>
        <mxCell id="YV2BT5zyzoHaoUn2P1-p-68" value="" style="html=1;points=[];perimeter=orthogonalPerimeter;rounded=0;shadow=0;comic=0;labelBackgroundColor=none;strokeWidth=1;fontFamily=Verdana;fontSize=12;align=center;" vertex="1" parent="YV2BT5zyzoHaoUn2P1-p-2">
          <mxGeometry x="45" y="290" width="10" height="120" as="geometry" />
        </mxCell>
        <mxCell id="YV2BT5zyzoHaoUn2P1-p-5" value="应用服务端" style="shape=umlLifeline;perimeter=lifelinePerimeter;whiteSpace=wrap;html=1;container=1;collapsible=0;recursiveResize=0;outlineConnect=0;rounded=1;shadow=0;comic=0;labelBackgroundColor=none;strokeWidth=1;fontFamily=Verdana;fontSize=12;align=center;" vertex="1" parent="1">
          <mxGeometry x="420" y="80" width="100" height="670" as="geometry" />
        </mxCell>
        <mxCell id="YV2BT5zyzoHaoUn2P1-p-7" style="edgeStyle=none;rounded=0;orthogonalLoop=1;jettySize=auto;html=1;elbow=vertical;" edge="1" parent="YV2BT5zyzoHaoUn2P1-p-5" target="YV2BT5zyzoHaoUn2P1-p-5">
          <mxGeometry relative="1" as="geometry">
            <mxPoint x="49.5" y="530" as="sourcePoint" />
          </mxGeometry>
        </mxCell>
        <mxCell id="YV2BT5zyzoHaoUn2P1-p-8" style="edgeStyle=orthogonalEdgeStyle;rounded=0;orthogonalLoop=1;jettySize=auto;html=1;" edge="1" parent="YV2BT5zyzoHaoUn2P1-p-5" target="YV2BT5zyzoHaoUn2P1-p-5">
          <mxGeometry relative="1" as="geometry">
            <Array as="points">
              <mxPoint x="50" y="230" />
              <mxPoint x="50" y="230" />
            </Array>
            <mxPoint x="49.5" y="530" as="sourcePoint" />
          </mxGeometry>
        </mxCell>
        <mxCell id="YV2BT5zyzoHaoUn2P1-p-69" value="" style="html=1;points=[];perimeter=orthogonalPerimeter;rounded=0;shadow=0;comic=0;labelBackgroundColor=none;strokeWidth=1;fontFamily=Verdana;fontSize=12;align=center;" vertex="1" parent="YV2BT5zyzoHaoUn2P1-p-5">
          <mxGeometry x="45" y="320" width="10" height="80" as="geometry" />
        </mxCell>
        <mxCell id="YV2BT5zyzoHaoUn2P1-p-10" value="教育平台" style="shape=umlLifeline;perimeter=lifelinePerimeter;whiteSpace=wrap;html=1;container=1;collapsible=0;recursiveResize=0;outlineConnect=0;rounded=1;shadow=0;comic=0;labelBackgroundColor=none;strokeWidth=1;fontFamily=Verdana;fontSize=12;align=center;" vertex="1" parent="1">
          <mxGeometry x="580" y="80" width="100" height="580" as="geometry" />
        </mxCell>
        <mxCell id="YV2BT5zyzoHaoUn2P1-p-11" style="edgeStyle=orthogonalEdgeStyle;rounded=0;orthogonalLoop=1;jettySize=auto;html=1;" edge="1" parent="YV2BT5zyzoHaoUn2P1-p-10" source="YV2BT5zyzoHaoUn2P1-p-12" target="YV2BT5zyzoHaoUn2P1-p-10">
          <mxGeometry relative="1" as="geometry">
            <Array as="points">
              <mxPoint x="50" y="230" />
              <mxPoint x="50" y="230" />
            </Array>
          </mxGeometry>
        </mxCell>
        <mxCell id="YV2BT5zyzoHaoUn2P1-p-12" value="" style="html=1;points=[];perimeter=orthogonalPerimeter;rounded=0;shadow=0;comic=0;labelBackgroundColor=none;strokeWidth=1;fontFamily=Verdana;fontSize=12;align=center;" vertex="1" parent="YV2BT5zyzoHaoUn2P1-p-10">
          <mxGeometry x="45" y="90" width="10" height="240" as="geometry" />
        </mxCell>
        <mxCell id="YV2BT5zyzoHaoUn2P1-p-74" value="" style="html=1;points=[];perimeter=orthogonalPerimeter;rounded=0;shadow=0;comic=0;labelBackgroundColor=none;strokeWidth=1;fontFamily=Verdana;fontSize=12;align=center;" vertex="1" parent="YV2BT5zyzoHaoUn2P1-p-10">
          <mxGeometry x="45" y="340" width="10" height="60" as="geometry" />
        </mxCell>
        <mxCell id="YV2BT5zyzoHaoUn2P1-p-14" value="门户" style="shape=umlLifeline;perimeter=lifelinePerimeter;whiteSpace=wrap;html=1;container=1;collapsible=0;recursiveResize=0;outlineConnect=0;rounded=1;shadow=0;comic=0;labelBackgroundColor=none;strokeWidth=1;fontFamily=Verdana;fontSize=12;align=center;" vertex="1" parent="1">
          <mxGeometry x="100" y="80" width="100" height="580" as="geometry" />
        </mxCell>
        <mxCell id="YV2BT5zyzoHaoUn2P1-p-15" value="" style="html=1;points=[];perimeter=orthogonalPerimeter;rounded=0;shadow=0;comic=0;labelBackgroundColor=none;strokeWidth=1;fontFamily=Verdana;fontSize=12;align=center;" vertex="1" parent="YV2BT5zyzoHaoUn2P1-p-14">
          <mxGeometry x="45" y="60" width="10" height="440" as="geometry" />
        </mxCell>
        <mxCell id="YV2BT5zyzoHaoUn2P1-p-61" value="用户未登录" style="edgeStyle=orthogonalEdgeStyle;rounded=0;orthogonalLoop=1;jettySize=auto;html=1;entryX=1.1;entryY=0.105;entryDx=0;entryDy=0;entryPerimeter=0;exitX=1;exitY=0.022;exitDx=0;exitDy=0;exitPerimeter=0;" edge="1" parent="YV2BT5zyzoHaoUn2P1-p-14" source="YV2BT5zyzoHaoUn2P1-p-15" target="YV2BT5zyzoHaoUn2P1-p-15">
          <mxGeometry relative="1" as="geometry">
            <Array as="points">
              <mxPoint x="90" y="70" />
              <mxPoint x="90" y="106" />
            </Array>
          </mxGeometry>
        </mxCell>
        <mxCell id="YV2BT5zyzoHaoUn2P1-p-18" value="教育号" style="shape=umlLifeline;perimeter=lifelinePerimeter;whiteSpace=wrap;html=1;container=1;collapsible=0;recursiveResize=0;outlineConnect=0;rounded=1;shadow=0;comic=0;labelBackgroundColor=none;strokeWidth=1;fontFamily=Verdana;fontSize=12;align=center;" vertex="1" parent="1">
          <mxGeometry x="730" y="80" width="100" height="580" as="geometry" />
        </mxCell>
        <mxCell id="YV2BT5zyzoHaoUn2P1-p-19" style="edgeStyle=none;rounded=0;orthogonalLoop=1;jettySize=auto;html=1;" edge="1" parent="YV2BT5zyzoHaoUn2P1-p-18" source="YV2BT5zyzoHaoUn2P1-p-20">
          <mxGeometry relative="1" as="geometry">
            <mxPoint x="55" y="190" as="targetPoint" />
          </mxGeometry>
        </mxCell>
        <mxCell id="YV2BT5zyzoHaoUn2P1-p-20" value="" style="html=1;points=[];perimeter=orthogonalPerimeter;rounded=0;shadow=0;comic=0;labelBackgroundColor=none;strokeWidth=1;fontFamily=Verdana;fontSize=12;align=center;" vertex="1" parent="YV2BT5zyzoHaoUn2P1-p-18">
          <mxGeometry x="45" y="90" width="10" height="130" as="geometry" />
        </mxCell>
        <mxCell id="YV2BT5zyzoHaoUn2P1-p-21" value="" style="edgeStyle=none;rounded=0;orthogonalLoop=1;jettySize=auto;html=1;" edge="1" parent="YV2BT5zyzoHaoUn2P1-p-18" target="YV2BT5zyzoHaoUn2P1-p-20">
          <mxGeometry relative="1" as="geometry">
            <mxPoint x="55" y="190" as="sourcePoint" />
          </mxGeometry>
        </mxCell>
        <mxCell id="YV2BT5zyzoHaoUn2P1-p-25" value="" style="html=1;points=[];perimeter=orthogonalPerimeter;rounded=0;shadow=0;comic=0;labelBackgroundColor=none;strokeWidth=1;fontFamily=Verdana;fontSize=12;align=center;" vertex="1" parent="YV2BT5zyzoHaoUn2P1-p-18">
          <mxGeometry x="45" y="240" width="10" height="50" as="geometry" />
        </mxCell>
        <mxCell id="YV2BT5zyzoHaoUn2P1-p-26" style="edgeStyle=orthogonalEdgeStyle;rounded=0;orthogonalLoop=1;jettySize=auto;html=1;" edge="1" parent="YV2BT5zyzoHaoUn2P1-p-18" target="YV2BT5zyzoHaoUn2P1-p-18">
          <mxGeometry relative="1" as="geometry">
            <mxPoint x="50" y="330" as="sourcePoint" />
          </mxGeometry>
        </mxCell>
        <mxCell id="YV2BT5zyzoHaoUn2P1-p-35" style="rounded=0;orthogonalLoop=1;jettySize=auto;html=1;elbow=vertical;dashed=1;exitX=0;exitY=0.931;exitDx=0;exitDy=0;exitPerimeter=0;" edge="1" parent="1" source="YV2BT5zyzoHaoUn2P1-p-69">
          <mxGeometry relative="1" as="geometry">
            <mxPoint x="466" y="552.5999999999999" as="sourcePoint" />
            <mxPoint x="320" y="474" as="targetPoint" />
          </mxGeometry>
        </mxCell>
        <mxCell id="YV2BT5zyzoHaoUn2P1-p-36" value="登录完成，下发登录态" style="edgeLabel;html=1;align=center;verticalAlign=middle;resizable=0;points=[];" vertex="1" connectable="0" parent="YV2BT5zyzoHaoUn2P1-p-35">
          <mxGeometry x="-0.3139" y="-1" relative="1" as="geometry">
            <mxPoint x="-25" y="-9" as="offset" />
          </mxGeometry>
        </mxCell>
        <mxCell id="YV2BT5zyzoHaoUn2P1-p-38" style="edgeStyle=none;rounded=0;orthogonalLoop=1;jettySize=auto;html=1;elbow=vertical;dashed=1;exitX=-0.2;exitY=0.8;exitDx=0;exitDy=0;exitPerimeter=0;" edge="1" parent="1" source="YV2BT5zyzoHaoUn2P1-p-25" target="YV2BT5zyzoHaoUn2P1-p-10">
          <mxGeometry relative="1" as="geometry">
            <mxPoint x="770" y="535" as="sourcePoint" />
            <mxPoint x="640" y="430" as="targetPoint" />
          </mxGeometry>
        </mxCell>
        <mxCell id="YV2BT5zyzoHaoUn2P1-p-39" value="返回用户信息" style="edgeLabel;html=1;align=center;verticalAlign=middle;resizable=0;points=[];" vertex="1" connectable="0" parent="YV2BT5zyzoHaoUn2P1-p-38">
          <mxGeometry x="-0.3139" y="-1" relative="1" as="geometry">
            <mxPoint x="-18" as="offset" />
          </mxGeometry>
        </mxCell>
        <mxCell id="YV2BT5zyzoHaoUn2P1-p-40" style="edgeStyle=orthogonalEdgeStyle;rounded=0;orthogonalLoop=1;jettySize=auto;html=1;dashed=1;exitX=0.1;exitY=0.873;exitDx=0;exitDy=0;exitPerimeter=0;entryX=1;entryY=0.108;entryDx=0;entryDy=0;entryPerimeter=0;" edge="1" parent="1" source="YV2BT5zyzoHaoUn2P1-p-12" target="YV2BT5zyzoHaoUn2P1-p-68">
          <mxGeometry relative="1" as="geometry">
            <mxPoint x="620" y="450" as="sourcePoint" />
            <mxPoint x="380" y="390" as="targetPoint" />
          </mxGeometry>
        </mxCell>
        <mxCell id="YV2BT5zyzoHaoUn2P1-p-41" value="用户票据token" style="edgeLabel;html=1;align=center;verticalAlign=middle;resizable=0;points=[];" vertex="1" connectable="0" parent="YV2BT5zyzoHaoUn2P1-p-40">
          <mxGeometry x="-0.1984" relative="1" as="geometry">
            <mxPoint x="-20" as="offset" />
          </mxGeometry>
        </mxCell>
        <mxCell id="YV2BT5zyzoHaoUn2P1-p-50" style="edgeStyle=orthogonalEdgeStyle;rounded=0;orthogonalLoop=1;jettySize=auto;html=1;entryX=1;entryY=0.681;entryDx=0;entryDy=0;entryPerimeter=0;exitX=-0.1;exitY=0.508;exitDx=0;exitDy=0;exitPerimeter=0;dashed=1;" edge="1" parent="1" source="YV2BT5zyzoHaoUn2P1-p-74" target="YV2BT5zyzoHaoUn2P1-p-69">
          <mxGeometry relative="1" as="geometry" />
        </mxCell>
        <mxCell id="YV2BT5zyzoHaoUn2P1-p-51" value="用户信息" style="edgeLabel;html=1;align=center;verticalAlign=middle;resizable=0;points=[];" vertex="1" connectable="0" parent="YV2BT5zyzoHaoUn2P1-p-50">
          <mxGeometry x="-0.1242" y="1" relative="1" as="geometry">
            <mxPoint as="offset" />
          </mxGeometry>
        </mxCell>
        <mxCell id="YV2BT5zyzoHaoUn2P1-p-57" value="用户登录（插件）" style="edgeStyle=orthogonalEdgeStyle;rounded=0;orthogonalLoop=1;jettySize=auto;html=1;exitX=0.9;exitY=0.131;exitDx=0;exitDy=0;exitPerimeter=0;entryX=0.5;entryY=0.212;entryDx=0;entryDy=0;entryPerimeter=0;" edge="1" parent="1" source="YV2BT5zyzoHaoUn2P1-p-15" target="YV2BT5zyzoHaoUn2P1-p-20">
          <mxGeometry relative="1" as="geometry">
            <mxPoint x="770" y="191" as="targetPoint" />
          </mxGeometry>
        </mxCell>
        <mxCell id="YV2BT5zyzoHaoUn2P1-p-59" style="edgeStyle=orthogonalEdgeStyle;rounded=0;orthogonalLoop=1;jettySize=auto;html=1;dashed=1;exitX=-0.4;exitY=0.427;exitDx=0;exitDy=0;exitPerimeter=0;" edge="1" parent="1" source="YV2BT5zyzoHaoUn2P1-p-20">
          <mxGeometry relative="1" as="geometry">
            <mxPoint x="770" y="240" as="sourcePoint" />
            <mxPoint x="150" y="226" as="targetPoint" />
          </mxGeometry>
        </mxCell>
        <mxCell id="YV2BT5zyzoHaoUn2P1-p-60" value="用户code" style="edgeLabel;html=1;align=center;verticalAlign=middle;resizable=0;points=[];" vertex="1" connectable="0" parent="YV2BT5zyzoHaoUn2P1-p-59">
          <mxGeometry x="-0.1253" y="-2" relative="1" as="geometry">
            <mxPoint x="-13" as="offset" />
          </mxGeometry>
        </mxCell>
        <mxCell id="YV2BT5zyzoHaoUn2P1-p-63" value="code换取access_token" style="edgeStyle=none;rounded=0;orthogonalLoop=1;jettySize=auto;html=1;elbow=vertical;" edge="1" parent="1" target="YV2BT5zyzoHaoUn2P1-p-20">
          <mxGeometry relative="1" as="geometry">
            <mxPoint x="630" y="280" as="sourcePoint" />
            <mxPoint x="770" y="360" as="targetPoint" />
          </mxGeometry>
        </mxCell>
        <mxCell id="YV2BT5zyzoHaoUn2P1-p-64" style="rounded=0;orthogonalLoop=1;jettySize=auto;html=1;elbow=vertical;dashed=1;exitX=0.5;exitY=1;exitDx=0;exitDy=0;exitPerimeter=0;" edge="1" parent="1" source="YV2BT5zyzoHaoUn2P1-p-20" target="YV2BT5zyzoHaoUn2P1-p-10">
          <mxGeometry relative="1" as="geometry">
            <mxPoint x="770" y="280" as="sourcePoint" />
            <mxPoint x="630" y="380" as="targetPoint" />
          </mxGeometry>
        </mxCell>
        <mxCell id="YV2BT5zyzoHaoUn2P1-p-65" value="返回token" style="edgeLabel;html=1;align=center;verticalAlign=middle;resizable=0;points=[];" vertex="1" connectable="0" parent="YV2BT5zyzoHaoUn2P1-p-64">
          <mxGeometry x="-0.3139" y="-1" relative="1" as="geometry">
            <mxPoint x="-18" as="offset" />
          </mxGeometry>
        </mxCell>
        <mxCell id="YV2BT5zyzoHaoUn2P1-p-66" style="edgeStyle=none;rounded=0;orthogonalLoop=1;jettySize=auto;html=1;elbow=vertical;entryX=0;entryY=0.36;entryDx=0;entryDy=0;entryPerimeter=0;" edge="1" parent="1" source="YV2BT5zyzoHaoUn2P1-p-10" target="YV2BT5zyzoHaoUn2P1-p-25">
          <mxGeometry relative="1" as="geometry">
            <mxPoint x="630" y="410" as="sourcePoint" />
            <mxPoint x="775" y="410" as="targetPoint" />
          </mxGeometry>
        </mxCell>
        <mxCell id="YV2BT5zyzoHaoUn2P1-p-67" value="用token查询用户" style="edgeLabel;html=1;align=center;verticalAlign=middle;resizable=0;points=[];" vertex="1" connectable="0" parent="YV2BT5zyzoHaoUn2P1-p-66">
          <mxGeometry x="0.2645" relative="1" as="geometry">
            <mxPoint x="-13" as="offset" />
          </mxGeometry>
        </mxCell>
        <mxCell id="YV2BT5zyzoHaoUn2P1-p-70" style="edgeStyle=orthogonalEdgeStyle;rounded=0;orthogonalLoop=1;jettySize=auto;html=1;entryX=0.1;entryY=0.188;entryDx=0;entryDy=0;entryPerimeter=0;" edge="1" parent="1" target="YV2BT5zyzoHaoUn2P1-p-69">
          <mxGeometry relative="1" as="geometry">
            <mxPoint x="320" y="415" as="sourcePoint" />
          </mxGeometry>
        </mxCell>
        <mxCell id="YV2BT5zyzoHaoUn2P1-p-71" value="获取用户信息" style="edgeLabel;html=1;align=center;verticalAlign=middle;resizable=0;points=[];" vertex="1" connectable="0" parent="YV2BT5zyzoHaoUn2P1-p-70">
          <mxGeometry x="-0.1815" y="-1" relative="1" as="geometry">
            <mxPoint as="offset" />
          </mxGeometry>
        </mxCell>
        <mxCell id="YV2BT5zyzoHaoUn2P1-p-72" style="edgeStyle=orthogonalEdgeStyle;rounded=0;orthogonalLoop=1;jettySize=auto;html=1;entryX=-0.2;entryY=0.192;entryDx=0;entryDy=0;entryPerimeter=0;" edge="1" parent="1" target="YV2BT5zyzoHaoUn2P1-p-74">
          <mxGeometry relative="1" as="geometry">
            <mxPoint x="470" y="432" as="sourcePoint" />
            <mxPoint x="476" y="415" as="targetPoint" />
          </mxGeometry>
        </mxCell>
        <mxCell id="YV2BT5zyzoHaoUn2P1-p-73" value="获取用户信息" style="edgeLabel;html=1;align=center;verticalAlign=middle;resizable=0;points=[];" vertex="1" connectable="0" parent="YV2BT5zyzoHaoUn2P1-p-72">
          <mxGeometry x="-0.1815" y="-1" relative="1" as="geometry">
            <mxPoint as="offset" />
          </mxGeometry>
        </mxCell>
        <mxCell id="YV2BT5zyzoHaoUn2P1-p-76" style="edgeStyle=orthogonalEdgeStyle;rounded=0;orthogonalLoop=1;jettySize=auto;html=1;entryX=0.1;entryY=0.348;entryDx=0;entryDy=0;entryPerimeter=0;" edge="1" parent="1" target="YV2BT5zyzoHaoUn2P1-p-12">
          <mxGeometry relative="1" as="geometry">
            <mxPoint x="160" y="254" as="sourcePoint" />
          </mxGeometry>
        </mxCell>
        <mxCell id="YV2BT5zyzoHaoUn2P1-p-77" value="code获取用户信息，重定向url、appid" style="edgeLabel;html=1;align=center;verticalAlign=middle;resizable=0;points=[];" vertex="1" connectable="0" parent="YV2BT5zyzoHaoUn2P1-p-76">
          <mxGeometry x="0.194" y="-4" relative="1" as="geometry">
            <mxPoint x="-13" y="-7" as="offset" />
          </mxGeometry>
        </mxCell>
      </root>
    </mxGraphModel>
  </diagram>
</mxfile>
